# xmcd
#
# Track frame offsets:
#	150
#	18570
#	39631
#	60341
#
# Disc length: 1089 seconds
#
# Revision: 0
# Processed by: cddbd v1.4PL0 Copyright (c) Steve Scherf et al.
# Submitted via: audiograbber 1.80
#
DISCID=2a043f04
DTITLE=The Love Scene - Blood Is The New Black EP
DYEAR=1900
DGENRE=
TTITLE0=A Stone To Call My Own
TTITLE1=You're The Only One
TTITLE2=Walk The Line
TTITLE3=Misinformation Of The Local 101
EXTD=
EXTT0=
EXTT1=
EXTT2=
EXTT3=
PLAYORDER=
